<?xml version="1.0" encoding="UTF-8" standalone="no"?>
<!-- Created with Inkscape (http://www.inkscape.org/) -->

<svg
   width="240mm"
   height="120mm"
   viewBox="0 0 240 120"
   version="1.1"
   id="svg8"
   inkscape:version="1.1.2 (0a00cf5339, 2022-02-04, custom)"
   sodipodi:docname="distribution-of-k-th-ordinal-statistics.svg"
   xmlns:inkscape="http://www.inkscape.org/namespaces/inkscape"
   xmlns:sodipodi="http://sodipodi.sourceforge.net/DTD/sodipodi-0.dtd"
   xmlns="http://www.w3.org/2000/svg"
   xmlns:svg="http://www.w3.org/2000/svg"
   xmlns:rdf="http://www.w3.org/1999/02/22-rdf-syntax-ns#"
   xmlns:cc="http://creativecommons.org/ns#"
   xmlns:dc="http://purl.org/dc/elements/1.1/">
  <defs
     id="defs2">
    <inkscape:path-effect
       effect="spiro"
       id="path-effect3506"
       is_visible="true"
       lpeversion="1" />
    <inkscape:path-effect
       effect="simplify"
       id="path-effect3504"
       is_visible="true"
       lpeversion="1"
       steps="1"
       threshold="0.00108696"
       smooth_angles="360"
       helper_size="0"
       simplify_individual_paths="false"
       simplify_just_coalesce="false" />
    <inkscape:path-effect
       effect="spiro"
       id="path-effect3500"
       is_visible="true"
       lpeversion="1" />
    <inkscape:path-effect
       effect="simplify"
       id="path-effect3498"
       is_visible="true"
       lpeversion="1"
       steps="1"
       threshold="0.00108696"
       smooth_angles="360"
       helper_size="0"
       simplify_individual_paths="false"
       simplify_just_coalesce="false" />
    <inkscape:path-effect
       effect="simplify"
       id="path-effect3492"
       is_visible="true"
       lpeversion="1"
       steps="1"
       threshold="0.00108696"
       smooth_angles="360"
       helper_size="0"
       simplify_individual_paths="false"
       simplify_just_coalesce="false" />
    <inkscape:path-effect
       effect="simplify"
       id="path-effect3486"
       is_visible="true"
       lpeversion="1"
       steps="1"
       threshold="0.00108696"
       smooth_angles="360"
       helper_size="0"
       simplify_individual_paths="false"
       simplify_just_coalesce="false" />
    <inkscape:path-effect
       effect="spiro"
       id="path-effect3482"
       is_visible="true"
       lpeversion="1" />
    <inkscape:path-effect
       effect="simplify"
       id="path-effect3480"
       is_visible="true"
       lpeversion="1"
       steps="1"
       threshold="0.00108696"
       smooth_angles="360"
       helper_size="0"
       simplify_individual_paths="false"
       simplify_just_coalesce="false" />
    <inkscape:path-effect
       effect="spiro"
       id="path-effect3263"
       is_visible="true"
       lpeversion="1" />
    <inkscape:path-effect
       effect="simplify"
       id="path-effect3261"
       is_visible="true"
       lpeversion="1"
       steps="1"
       threshold="0.00108696"
       smooth_angles="360"
       helper_size="0"
       simplify_individual_paths="false"
       simplify_just_coalesce="false" />
    <inkscape:path-effect
       effect="spiro"
       id="path-effect3245"
       is_visible="true"
       lpeversion="1" />
    <inkscape:path-effect
       effect="simplify"
       id="path-effect3243"
       is_visible="true"
       lpeversion="1"
       steps="1"
       threshold="0.00108696"
       smooth_angles="360"
       helper_size="0"
       simplify_individual_paths="false"
       simplify_just_coalesce="false" />
    <inkscape:path-effect
       effect="spiro"
       id="path-effect3239"
       is_visible="true"
       lpeversion="1" />
    <inkscape:path-effect
       effect="simplify"
       id="path-effect3237"
       is_visible="true"
       lpeversion="1"
       steps="1"
       threshold="0.00108696"
       smooth_angles="360"
       helper_size="0"
       simplify_individual_paths="false"
       simplify_just_coalesce="false" />
    <inkscape:path-effect
       effect="spiro"
       id="path-effect3233"
       is_visible="true"
       lpeversion="1" />
    <inkscape:path-effect
       effect="simplify"
       id="path-effect3231"
       is_visible="true"
       lpeversion="1"
       steps="1"
       threshold="0.00108696"
       smooth_angles="360"
       helper_size="0"
       simplify_individual_paths="false"
       simplify_just_coalesce="false" />
    <inkscape:path-effect
       effect="spiro"
       id="path-effect3227"
       is_visible="true"
       lpeversion="1" />
    <inkscape:path-effect
       effect="simplify"
       id="path-effect3225"
       is_visible="true"
       lpeversion="1"
       steps="1"
       threshold="0.00108696"
       smooth_angles="360"
       helper_size="0"
       simplify_individual_paths="false"
       simplify_just_coalesce="false" />
    <inkscape:path-effect
       effect="spiro"
       id="path-effect3221"
       is_visible="true"
       lpeversion="1" />
    <inkscape:path-effect
       effect="simplify"
       id="path-effect3219"
       is_visible="true"
       lpeversion="1"
       steps="1"
       threshold="0.00108696"
       smooth_angles="360"
       helper_size="0"
       simplify_individual_paths="false"
       simplify_just_coalesce="false" />
    <inkscape:path-effect
       effect="spiro"
       id="path-effect3209"
       is_visible="true"
       lpeversion="1" />
    <inkscape:path-effect
       effect="simplify"
       id="path-effect3207"
       is_visible="true"
       lpeversion="1"
       steps="1"
       threshold="0.00108696"
       smooth_angles="360"
       helper_size="0"
       simplify_individual_paths="false"
       simplify_just_coalesce="false" />
    <inkscape:path-effect
       effect="spiro"
       id="path-effect3167"
       is_visible="true"
       lpeversion="1" />
    <inkscape:path-effect
       effect="simplify"
       id="path-effect3165"
       is_visible="true"
       lpeversion="1"
       steps="1"
       threshold="0.00108696"
       smooth_angles="360"
       helper_size="0"
       simplify_individual_paths="false"
       simplify_just_coalesce="false" />
    <inkscape:path-effect
       effect="spiro"
       id="path-effect3161"
       is_visible="true"
       lpeversion="1" />
    <inkscape:path-effect
       effect="simplify"
       id="path-effect3159"
       is_visible="true"
       lpeversion="1"
       steps="1"
       threshold="0.00108696"
       smooth_angles="360"
       helper_size="0"
       simplify_individual_paths="false"
       simplify_just_coalesce="false" />
    <inkscape:path-effect
       effect="spiro"
       id="path-effect3155"
       is_visible="true"
       lpeversion="1" />
    <inkscape:path-effect
       effect="simplify"
       id="path-effect3153"
       is_visible="true"
       lpeversion="1"
       steps="1"
       threshold="0.00108696"
       smooth_angles="360"
       helper_size="0"
       simplify_individual_paths="false"
       simplify_just_coalesce="false" />
    <inkscape:path-effect
       effect="spiro"
       id="path-effect3149"
       is_visible="true"
       lpeversion="1" />
    <inkscape:path-effect
       effect="simplify"
       id="path-effect3147"
       is_visible="true"
       lpeversion="1"
       steps="1"
       threshold="0.00108696"
       smooth_angles="360"
       helper_size="0"
       simplify_individual_paths="false"
       simplify_just_coalesce="false" />
    <inkscape:path-effect
       effect="spiro"
       id="path-effect3143"
       is_visible="true"
       lpeversion="1" />
    <inkscape:path-effect
       effect="simplify"
       id="path-effect3141"
       is_visible="true"
       lpeversion="1"
       steps="1"
       threshold="0.00108696"
       smooth_angles="360"
       helper_size="0"
       simplify_individual_paths="false"
       simplify_just_coalesce="false" />
    <inkscape:path-effect
       effect="spiro"
       id="path-effect3137"
       is_visible="true"
       lpeversion="1" />
    <inkscape:path-effect
       effect="simplify"
       id="path-effect3135"
       is_visible="true"
       lpeversion="1"
       steps="1"
       threshold="0.00108696"
       smooth_angles="360"
       helper_size="0"
       simplify_individual_paths="false"
       simplify_just_coalesce="false" />
    <inkscape:path-effect
       effect="simplify"
       id="path-effect3009"
       is_visible="true"
       lpeversion="1"
       steps="1"
       threshold="0.00108696"
       smooth_angles="360"
       helper_size="0"
       simplify_individual_paths="false"
       simplify_just_coalesce="false" />
    <inkscape:path-effect
       effect="simplify"
       id="path-effect3005"
       is_visible="true"
       lpeversion="1"
       steps="1"
       threshold="0.00108696"
       smooth_angles="360"
       helper_size="0"
       simplify_individual_paths="false"
       simplify_just_coalesce="false" />
    <inkscape:path-effect
       effect="simplify"
       id="path-effect3001"
       is_visible="true"
       lpeversion="1"
       steps="1"
       threshold="0.00108696"
       smooth_angles="360"
       helper_size="0"
       simplify_individual_paths="false"
       simplify_just_coalesce="false" />
    <inkscape:path-effect
       effect="simplify"
       id="path-effect1543"
       is_visible="true"
       lpeversion="1"
       steps="1"
       threshold="0.00108696"
       smooth_angles="360"
       helper_size="0"
       simplify_individual_paths="false"
       simplify_just_coalesce="false" />
    <inkscape:path-effect
       effect="simplify"
       id="path-effect1535"
       is_visible="true"
       lpeversion="1"
       steps="1"
       threshold="0.00108696"
       smooth_angles="360"
       helper_size="0"
       simplify_individual_paths="false"
       simplify_just_coalesce="false" />
    <inkscape:path-effect
       effect="simplify"
       id="path-effect902"
       is_visible="true"
       lpeversion="1"
       steps="1"
       threshold="0.00108696"
       smooth_angles="360"
       helper_size="0"
       simplify_individual_paths="false"
       simplify_just_coalesce="false" />
    <inkscape:path-effect
       effect="simplify"
       id="path-effect898"
       is_visible="true"
       lpeversion="1"
       steps="1"
       threshold="0.00108696"
       smooth_angles="360"
       helper_size="0"
       simplify_individual_paths="false"
       simplify_just_coalesce="false" />
    <inkscape:path-effect
       effect="simplify"
       id="path-effect890"
       is_visible="true"
       lpeversion="1"
       steps="1"
       threshold="0.00108696"
       smooth_angles="360"
       helper_size="0"
       simplify_individual_paths="false"
       simplify_just_coalesce="false" />
    <inkscape:path-effect
       effect="simplify"
       id="path-effect878"
       is_visible="true"
       lpeversion="1"
       steps="1"
       threshold="0.00108696"
       smooth_angles="360"
       helper_size="0"
       simplify_individual_paths="false"
       simplify_just_coalesce="false" />
  </defs>
  <sodipodi:namedview
     id="base"
     pagecolor="#ffffff"
     bordercolor="#666666"
     borderopacity="1.0"
     inkscape:pageopacity="0.0"
     inkscape:pageshadow="2"
     inkscape:zoom="1.4247736"
     inkscape:cx="420.76861"
     inkscape:cy="288.81782"
     inkscape:document-units="mm"
     inkscape:current-layer="layer1"
     showgrid="false"
     showborder="true"
     width="200mm"
     showguides="true"
     inkscape:guide-bbox="true"
     inkscape:window-width="1908"
     inkscape:window-height="1042"
     inkscape:window-x="6"
     inkscape:window-y="32"
     inkscape:window-maximized="1"
     inkscape:pagecheckerboard="0"
     inkscape:snap-nodes="false"
     inkscape:snap-others="false"
     inkscape:snap-global="false">
    <inkscape:grid
       type="xygrid"
       id="grid815"
       units="mm"
       spacingx="10"
       spacingy="10"
       empspacing="4"
       dotted="false" />
  </sodipodi:namedview>
  <metadata
     id="metadata5">
    <rdf:RDF>
      <cc:Work
         rdf:about="">
        <dc:format>image/svg+xml</dc:format>
        <dc:type
           rdf:resource="http://purl.org/dc/dcmitype/StillImage" />
        <dc:title />
      </cc:Work>
    </rdf:RDF>
  </metadata>
  <g
     inkscape:label="Layer 1"
     inkscape:groupmode="layer"
     id="layer1"
     transform="translate(0,-177)">
    <path
       style="fill:none;stroke:#000000;stroke-width:0.356832px;stroke-linecap:butt;stroke-linejoin:miter;stroke-opacity:1"
       d="m 8.7749392,236.64723 c 13.2476818,1.69473 26.5116308,-0.45419 39.7672598,-1.69604 11.936167,-1.11824 24.150024,0.34857 36.121942,0 12.54753,-0.36531 25.184329,-1.71246 37.778909,-1.33898 34.32956,1.018 69.53753,4.00072 103.35347,0.44632"
       id="path856" />
    <path
       style="fill:none;stroke:#000000;stroke-width:0.356832px;stroke-linecap:butt;stroke-linejoin:miter;stroke-opacity:1"
       d="m 217.76022,226.78332 c 2.09957,-0.23355 4.1792,0.78029 6.13076,1.65143 2.53396,1.1311 4.51423,3.29115 7.00074,4.46331 0.51812,0.24424 1.57412,0.003 1.57412,0.66949 0,0.01 -0.94921,-0.0891 -0.95278,-0.0892 -1.20682,-0.0373 -2.29931,0.0837 -3.47966,0.40168 -3.38986,0.91315 -9.10718,5.36271 -10.60459,9.19445"
       id="path858" />
    <path
       style="fill:none;stroke:#000000;stroke-width:0.356832px;stroke-linecap:butt;stroke-linejoin:miter;stroke-opacity:1"
       d="m 172.40069,209.64417 c 1.09677,6.82772 1.14694,13.76286 1.1726,20.66108 0.0154,4.14764 -0.0485,8.30125 0.21835,12.44152 0.12263,1.90256 0.42946,3.79506 0.41883,5.70436 -0.002,0.38074 -0.018,0.76223 -0.07,1.13974"
       id="path876"
       inkscape:path-effect="#path-effect878"
       inkscape:original-d="m 172.40069,209.64417 c 1.72815,10.74804 0.87017,21.83226 1.36699,32.6715 0.10279,2.24356 0.63042,5.42469 0.37282,7.2752" />
    <path
       style="fill:none;stroke:#000000;stroke-width:0.356832px;stroke-linecap:butt;stroke-linejoin:miter;stroke-opacity:1"
       d="m 159.54061,245.95862 c -0.10093,1.47744 -0.11911,2.97351 0.13274,4.43684 0.15371,0.8931 0.39859,1.78861 0.87259,2.56859 0.32355,0.53241 0.77919,1.00497 1.35867,1.25615 0.5204,0.22557 1.12032,0.23076 1.65684,0.0564 0.7659,-0.24897 1.40201,-0.81213 1.82915,-1.48608 0.51143,-0.80694 0.71123,-1.80278 0.55306,-2.74587 -0.0548,-0.32675 -0.15077,-0.64625 -0.28127,-0.95066"
       id="path888"
       inkscape:path-effect="#path-effect890"
       inkscape:original-d="m 159.54061,245.95862 c -0.93267,13.18408 8.30793,8.23879 6.12178,3.13533" />
    <path
       style="fill:none;stroke:#000000;stroke-width:0.356832px;stroke-linecap:butt;stroke-linejoin:miter;stroke-opacity:1"
       d="m 165.66236,249.09395 c 0.0751,-0.54027 -0.0231,-1.11049 0.17395,-1.62702 0.0362,-0.095 0.11639,-0.37562 0.13566,-0.2752 0.019,0.0988 -0.0214,0.21027 -0.0428,0.31101 -0.10384,0.49078 -0.25868,0.97858 -0.26753,1.48202 -0.004,0.22301 0.0733,0.43855 0.12123,0.65476 0.15968,0.72093 0.36144,1.43183 0.52381,2.15216 0.0431,0.19112 0.009,0.38784 0.007,0.58151 -0.007,0.67505 0.02,1.34974 0.0216,2.02486 0.005,1.98431 -0.0814,3.98071 0.19288,5.9515 0.0641,0.46092 0.11018,0.9304 0.25656,1.37247 0.23764,0.71766 0.50375,1.42582 0.72903,2.14763 0.21005,0.67301 0.44959,1.34696 0.52335,2.04996 0.0227,0.21646 0.10101,0.47227 -0.0289,0.65479 -0.13561,0.19059 -0.32415,0.34144 -0.51021,0.48118 -0.5551,0.41691 -1.26486,0.59661 -1.95374,0.54872 -0.94739,-0.0659 -1.84056,-0.45813 -2.63914,-0.95118 -1.11761,-0.69002 -2.13166,-1.55372 -2.97578,-2.5572 -0.3516,-0.41798 -0.71792,-0.83949 -0.934,-1.34834 -0.19449,-0.458 -0.21083,-0.9947 -0.006,-1.45319 0.26488,-0.5929 0.79006,-1.03472 1.36434,-1.31107 0.35482,-0.17074 0.73943,-0.32468 1.13782,-0.31218 0.13512,0.004 0.33194,0.0287 0.35936,0.18309 0.0282,0.15866 -0.08,0.30103 -0.16924,0.42041"
       id="path896"
       inkscape:path-effect="#path-effect898"
       inkscape:original-d="m 165.66236,249.09395 c 0.0823,-0.60142 -0.0125,-1.28 0.24711,-1.80428 0.25954,-0.5243 -0.28131,1.1962 -0.24711,1.80428 0.91374,4.18409 0.59646,1.69181 0.65888,4.11142 0.0694,2.69309 -0.16983,5.83224 0.43924,8.42988 0.10673,0.45538 1.69934,4.46928 1.20788,4.99878 -2.57376,2.77298 -6.95628,-1.0101 -8.59248,-3.22406 -2.28214,-3.088 3.54623,-4.6944 2.30597,-3.13533" />
    <path
       style="fill:none;stroke:#000000;stroke-width:0.356832px;stroke-linecap:butt;stroke-linejoin:miter;stroke-opacity:1"
       d="m 24.257396,236.40473 c 0.0021,0.17869 -0.01936,0.35656 -0.03695,0.53408 -0.04036,0.40712 -0.08544,0.81766 -0.04809,1.22653 0.02043,0.22359 0.06284,0.45165 0.17559,0.64877 0.06406,0.11199 0.158934,0.20409 0.269472,0.27145 0.32415,0.19752 0.703707,0.31359 1.085795,0.29528 0.403431,-0.0193 0.789509,-0.19293 1.095666,-0.45212 0.349688,-0.29604 0.615497,-0.69546 0.737131,-1.13795 0.08032,-0.29219 0.0942,-0.61194 -0.01331,-0.8997 -0.08345,-0.22334 -0.252437,-0.4099 -0.460697,-0.52473 -0.282977,-0.15603 -0.614057,-0.19501 -0.93266,-0.18842 -0.27062,0.006 -0.537727,0.0533 -0.80256,0.10602 -0.246597,0.049 -0.496917,0.0812 -0.740363,0.14441 -0.09924,0.0258 -0.203072,0.0517 -0.285924,0.11539 -0.05833,0.0448 -0.08768,0.11734 -0.09385,0.18909 -0.01095,0.12738 0.0093,0.25487 0.02878,0.38033 0.05277,0.33911 0.10265,0.67882 0.134342,1.0207 0.0096,0.10383 0.01789,0.20778 0.02489,0.31182"
       id="path900"
       inkscape:path-effect="#path-effect902"
       inkscape:original-d="m 24.257396,236.40473 c 0.01454,0.56034 -0.382801,2.21871 0.329425,2.66208 2.612644,1.62649 4.793776,-3.58877 0.878461,-2.80997 -1.750133,0.34815 -1.216636,0.0177 -1.070627,2.18884" />
    <path
       style="fill:none;stroke:#000000;stroke-width:0.356832px;stroke-linecap:butt;stroke-linejoin:miter;stroke-opacity:1"
       d="m 22.23463,245.57409 c 0.20837,0.35995 0.472701,0.68374 0.736544,1.00364 0.940218,1.13997 1.929113,2.2385 2.894627,3.35686 1.143189,1.32416 2.296262,2.64499 3.318116,4.06618 0.448577,0.62388 0.907087,1.25232 1.217775,1.95761 0.125286,0.28441 0.252658,0.58627 0.238591,0.9025 -0.0058,0.13081 -0.04967,0.26527 -0.147196,0.35662"
       id="path1533"
       inkscape:path-effect="#path-effect1535"
       inkscape:original-d="m 22.23463,245.57409 c 0.916854,1.67832 9.642305,10.31807 8.258457,11.64341" />
    <path
       style="fill:none;stroke:#000000;stroke-width:0.356832px;stroke-linecap:butt;stroke-linejoin:miter;stroke-opacity:1"
       d="m 30.471123,242.9709 c -1.837008,5.23044 -4.783539,10.00872 -6.486417,15.28448 -0.165428,0.51252 -0.291872,1.03747 -0.391977,1.56615 -0.05986,0.31615 -0.06774,0.64175 -0.144281,0.95519 -0.01513,0.0619 0.0267,0.12772 0.07304,0.0449 0.134204,-0.2397 0.219992,-0.50297 0.310318,-0.7613 0.01688,-0.0483 0.03357,-0.0966 0.05012,-0.14501"
       id="path1541"
       inkscape:path-effect="#path-effect1543"
       inkscape:original-d="m 30.471123,242.9709 c -1.852587,5.26584 -4.629226,10.00274 -6.479377,15.2642 -0.297286,0.84543 -0.99587,4.27158 -0.109819,1.68025" />
    <path
       style="fill:#000000;fill-opacity:1;fill-rule:nonzero;stroke:none;stroke-width:0.356832"
       id="path2395"
       d="m 34.382902,258.0709 c -0.190356,0.43319 -0.412559,0.8484 -0.571061,1.29961 -0.451182,1.28438 -0.75394,2.78472 -0.360063,4.15476 0.28254,0.98274 0.652167,1.41457 1.169818,2.19747 0.418673,0.56191 0.875874,1.02411 1.463549,1.29851 0.147654,0.0688 0.412001,0.14335 0.439657,0.08 0.06668,-0.15259 0.03984,-0.34114 0.05974,-0.51172 0,0 -0.318594,0.14983 -0.318594,0.14983 v 0 c 0.07106,-0.0146 0.141435,-0.0353 0.213154,-0.0442 0.01252,-10e-4 -0.02071,0.024 -0.03314,0.0215 -0.0748,-0.013 -0.148877,-0.0369 -0.219749,-0.0688 -0.539733,-0.24295 -0.952598,-0.66888 -1.336857,-1.18042 -0.472135,-0.70512 -0.836112,-1.13533 -1.100714,-2.01498 -0.531062,-1.76545 0.170106,-3.62697 0.875419,-5.14775 0,0 -0.28116,-0.23379 -0.28116,-0.23379 z" />
    <path
       style="fill:#000000;fill-opacity:1;fill-rule:nonzero;stroke:none;stroke-width:0.356832"
       id="path2403"
       d="m 38.519932,260.42065 c 0.741768,-1.22704 1.580245,-2.38533 2.225046,-3.69397 0.05233,-0.10625 0.18442,-0.2516 0.115414,-0.34315 -0.306889,-0.40722 -0.541532,0.0782 -0.681087,0.2592 0.357142,0.17291 -0.32958,0.19801 -0.262013,0.325 0.06361,0.11954 0.237396,0.14497 0.265404,0.28266 0.02895,0.14254 -0.131151,0.26791 -0.123699,0.4143 0.0197,0.38682 0.137667,0.75739 0.202672,1.13706 0.08646,0.50499 0.167831,1.01123 0.251744,1.51685 0.169487,0.94831 0.297175,1.77145 0.52681,2.69205 0.05557,0.22279 0.113332,0.44722 0.20083,0.6548 0.03296,0.0782 0.08221,0.20366 0.154069,0.18718 0.38482,-0.0883 0.311058,-0.3019 0.301498,-0.5893 -0.01944,-0.1048 -0.0389,-0.20952 -0.05835,-0.31428 0,0 -0.333587,0.092 -0.333587,0.092 v 0 c 0.01682,0.0839 0.03369,0.16802 0.05052,0.25201 0.02925,0.27028 -0.02844,0.15048 0.256275,0.24205 0.01615,0.006 -0.0423,0.008 -0.04926,-0.0113 -0.07617,-0.19924 -0.138337,-0.40645 -0.190754,-0.61637 -0.228074,-0.9135 -0.353953,-1.72671 -0.522308,-2.66856 -0.08424,-0.50756 -0.165782,-1.01577 -0.252742,-1.52266 -0.153252,-0.89335 -0.0897,-1.18956 -0.582691,-1.8221 -0.07669,-0.0985 0.06603,0.26852 0.1446,0.36477 0.09171,0.11225 0.190627,-0.79909 0.27336,-0.33914 0.09303,-0.12246 0.47623,-0.45358 0.109609,-0.68444 -0.06995,-0.0441 -0.04193,0.18484 -0.08226,0.2662 -0.646877,1.30531 -1.480553,2.4646 -2.222657,3.68969 0,0 0.283543,0.2296 0.283543,0.2296 z" />
    <path
       style="fill:#000000;fill-opacity:1;fill-rule:nonzero;stroke:none;stroke-width:0.356832"
       id="path2405"
       d="m 42.387534,257.01292 c 0.451642,-0.0693 0.91519,-0.21939 1.365928,-0.006 0.746017,0.35249 1.355093,1.32414 1.731697,2.12552 0.141063,0.30017 0.236371,0.62802 0.354556,0.94204 0.272905,1.3794 0.337761,2.81271 0.230513,4.22376 -0.02277,0.29957 -0.0606,0.5996 -0.128425,0.88928 -0.02893,0.12359 -0.06189,0.2787 -0.158186,0.33483 -0.0548,0.0319 -0.06229,-0.12538 -0.09344,-0.18819 -0.06246,-0.10464 -0.124932,-0.20933 -0.187398,-0.31399 0,0 -0.258181,0.26909 -0.258181,0.26909 v 0 c 0.120912,0.14756 0.241821,0.29503 0.362732,0.44254 0.15955,-0.006 0.341224,0.0799 0.478654,-0.0175 0.230474,-0.16303 0.323979,-1.36994 0.326327,-1.40127 0.110521,-1.47461 0.03908,-2.97054 -0.260935,-4.40821 -0.127993,-0.33481 -0.231813,-0.68446 -0.383981,-1.00444 -0.436163,-0.91722 -1.110517,-1.92194 -1.969236,-2.29994 -0.501922,-0.22093 -0.999458,-0.062 -1.500372,0.0173 0,0 0.08974,0.39549 0.08974,0.39549 z" />
    <path
       style="fill:none;stroke:#000000;stroke-width:0.356832px;stroke-linecap:butt;stroke-linejoin:miter;stroke-opacity:1"
       d="m 66.074746,234.04902 c -0.0673,0.15268 -0.169503,0.28657 -0.273021,0.41608 -0.261254,0.32686 -0.552691,0.63332 -0.764497,0.99641 -0.114434,0.19617 -0.208399,0.41345 -0.215375,0.64357 -0.0018,0.0602 -8.16e-4,0.12469 0.03484,0.17648 0.05745,0.0834 0.156785,0.12473 0.251175,0.14933 0.203903,0.0531 0.417048,0.0575 0.62626,0.0485 0.438609,-0.0189 0.873998,-0.0908 1.299492,-0.1967 0.367286,-0.0914 0.73395,-0.19811 1.074545,-0.36478 0.152799,-0.0748 0.306999,-0.15628 0.428168,-0.2777 0.05862,-0.0587 0.103105,-0.13424 0.110371,-0.21997 0.02445,-0.28854 -0.02362,-0.5894 -0.174025,-0.84073 -0.148984,-0.24896 -0.394304,-0.42883 -0.662786,-0.5314 -0.362284,-0.1384 -0.761972,-0.15935 -1.142608,-0.0998 -0.43878,0.0687 -0.866615,0.24297 -1.207996,0.53058 -0.255648,0.21538 -0.454476,0.50418 -0.538267,0.82977 0,0 -0.0053,0.0209 -0.0053,0.0209 0,0 -0.005,0.0211 -0.005,0.0211"
       id="path2999"
       inkscape:path-effect="#path-effect3001"
       inkscape:original-d="m 66.074746,234.04902 c -0.226516,0.53183 -1.296196,1.34309 -1.251949,2.12988 0.04224,0.75106 3.757901,-0.0458 3.821742,-0.73363 0.19901,-2.14368 -3.315773,-1.89669 -3.733882,-0.0946" />
    <path
       style="fill:none;stroke:#000000;stroke-width:0.356832px;stroke-linecap:butt;stroke-linejoin:miter;stroke-opacity:1"
       d="m 62.977828,243.68085 c 1.876401,3.15361 3.721592,6.3498 5.072463,9.76708 0.09205,0.23285 0.208763,0.45747 0.27753,0.69832 0.10107,0.35399 0.107437,0.72575 0.117562,1.09113 0.01149,0.41475 -0.01889,0.8347 0.05547,1.2441 0.02721,0.14979 0.05405,0.31915 0.174363,0.42338 0.08299,0.0719 0.231381,0.0898 0.30307,0.0128 0.08293,-0.0892 0.112422,-0.21309 0.140886,-0.32789 0.07992,-0.32232 0.117152,-0.65308 0.162318,-0.98148"
       id="path3003"
       inkscape:path-effect="#path-effect3005"
       inkscape:original-d="m 62.977828,243.68085 c 1.959137,3.29431 3.859111,6.70452 5.315285,10.36548 0.35828,0.90075 -0.13923,3.17394 0.658922,2.88719 0.190616,-0.0685 0.297022,-1.11562 0.329455,-1.32527" />
    <path
       style="fill:none;stroke:#000000;stroke-width:0.356832px;stroke-linecap:butt;stroke-linejoin:miter;stroke-opacity:1"
       d="m 70.445578,243.08923 c -0.64372,0.22182 -1.187333,0.66018 -1.657201,1.14103 -0.811384,0.83034 -1.468719,1.79672 -2.063783,2.78913 -1.29269,2.15586 -2.492536,4.38548 -3.341315,6.74724 -0.106288,0.29575 -0.171396,0.60432 -0.244237,0.90947 -0.146493,0.61369 -0.246088,1.24131 -0.450161,1.8387 -0.03853,0.11279 -0.02571,0.28666 -0.13792,0.33155 -0.08445,0.0338 -0.08158,-0.12293 -0.08681,-0.18145 -0.0117,-0.13096 -0.0131,-0.26261 -0.01346,-0.39401"
       id="path3007"
       inkscape:path-effect="#path-effect3009"
       inkscape:original-d="m 70.445578,243.08923 c -2.858211,0.96219 -5.64936,7.56461 -7.050435,10.64945 -0.246121,0.54189 -0.94445,4.61681 -0.94445,2.53221" />
    <path
       style="fill:none;stroke:#000000;stroke-width:0.356832px;stroke-linecap:butt;stroke-linejoin:miter;stroke-opacity:1"
       d="m 87.072311,241.24333 c 0.228092,0.0283 0.456492,0.054 0.685146,0.0773 0.08874,0.009 0.177718,0.0177 0.266914,0.017 0.104202,-7.7e-4 0.207827,-0.0142 0.311452,-0.0252 0.08385,-0.009 0.167882,-0.0162 0.252018,-0.0218"
       id="path3133"
       inkscape:path-effect="#path-effect3135;#path-effect3137"
       inkscape:original-d="m 87.072311,241.24333 c 1.13461,0.11371 0.62929,0.12067 1.51553,0.0473" />
    <path
       style="fill:none;stroke:#000000;stroke-width:0.356832px;stroke-linecap:butt;stroke-linejoin:miter;stroke-opacity:1"
       d="m 92.102071,241.14865 0.98838,0.30765"
       id="path3139"
       inkscape:path-effect="#path-effect3141;#path-effect3143"
       inkscape:original-d="m 92.102071,241.14865 c 0.32946,0.10253 0.65892,0.20511 0.98838,0.30765" />
    <path
       style="fill:none;stroke:#000000;stroke-width:0.356832px;stroke-linecap:butt;stroke-linejoin:miter;stroke-opacity:1"
       d="m 96.736471,241.83495 0.87856,0.0473"
       id="path3145"
       inkscape:path-effect="#path-effect3147;#path-effect3149"
       inkscape:original-d="m 96.736471,241.83495 c 0.29286,0.0162 0.58571,0.0316 0.87856,0.0473" />
    <path
       style="fill:none;stroke:#000000;stroke-width:0.356832px;stroke-linecap:butt;stroke-linejoin:miter;stroke-opacity:1"
       d="m 100.68999,241.57464 0.76874,-0.0946"
       id="path3151"
       inkscape:path-effect="#path-effect3153;#path-effect3155"
       inkscape:original-d="m 100.68999,241.57464 c 0.25625,-0.0316 0.5125,-0.0632 0.76874,-0.0946" />
    <path
       style="fill:none;stroke:#000000;stroke-width:0.356832px;stroke-linecap:butt;stroke-linejoin:miter;stroke-opacity:1"
       d="m 108.28954,241.33799 0.90051,-0.284"
       id="path3157"
       inkscape:path-effect="#path-effect3159;#path-effect3161"
       inkscape:original-d="m 108.28954,241.33799 c 0.30017,-0.0946 0.60033,-0.18934 0.90051,-0.284" />
    <path
       style="fill:none;stroke:#000000;stroke-width:0.356832px;stroke-linecap:butt;stroke-linejoin:miter;stroke-opacity:1"
       d="m 129.1114,233.50472 c -0.18883,0.55283 -0.30676,1.12984 -0.34999,1.71243 -0.0217,0.29208 -0.0221,0.59806 0.10506,0.86192 0.081,0.16819 0.21702,0.31472 0.39092,0.38265 0.11047,0.0431 0.23195,0.0534 0.35001,0.0422 0.11806,-0.0112 0.23326,-0.0432 0.34525,-0.0822 0.38333,-0.13355 0.73352,-0.34933 1.05707,-0.59447 0.46352,-0.35118 0.87924,-0.76647 1.22324,-1.23534 0.1978,-0.2696 0.37344,-0.56024 0.4724,-0.87964 0.0283,-0.0915 0.0504,-0.18567 0.0543,-0.28139 0.004,-0.0957 -0.0109,-0.19344 -0.0532,-0.27941 -0.039,-0.0793 -0.10041,-0.14652 -0.17199,-0.19837 -0.0716,-0.0519 -0.15317,-0.0888 -0.23747,-0.11539 -0.28828,-0.0909 -0.59994,-0.0606 -0.89809,-0.0109 -0.60228,0.10035 -1.18991,0.27573 -1.76482,0.48137 -0.1753,0.0627 -0.34957,0.12825 -0.52274,0.19661 z"
       id="path3163"
       inkscape:path-effect="#path-effect3165;#path-effect3167"
       inkscape:original-d="m 129.1114,233.50472 c -2.50198,8.29349 9.33018,-3.65566 0,0 z" />
    <path
       style="fill:none;stroke:#000000;stroke-width:0.356832px;stroke-linecap:butt;stroke-linejoin:miter;stroke-opacity:1"
       d="m 124.19145,243.63354 c 0.12455,-0.0863 0.28463,-0.11962 0.43327,-0.0901 0.11883,0.0236 0.2277,0.085 0.32102,0.16227 0.0933,0.0772 0.17236,0.17013 0.24808,0.26469 0.33941,0.4239 0.62184,0.89087 0.87418,1.37172 0.54981,1.04768 0.95881,2.16206 1.41815,3.25244 0.39073,0.92751 0.82048,1.84449 1.0759,2.81799 0.0299,0.11386 0.0574,0.22876 0.10064,0.33827 0.0432,0.10951 0.10304,0.21444 0.18896,0.29491 0.0136,0.0128 0.0283,0.0251 0.0458,0.0315 0.009,0.003 0.0182,0.005 0.0275,0.004 0.009,-7.1e-4 0.0185,-0.004 0.0259,-0.01 0.009,-0.007 0.015,-0.0176 0.0163,-0.0289 0.001,-0.0113 -0.002,-0.023 -0.009,-0.0318"
       id="path3205"
       inkscape:path-effect="#path-effect3207;#path-effect3209"
       inkscape:original-d="m 124.19145,243.63354 c 1.656,-1.31924 4.70713,9.65013 4.76619,8.37756" />
    <path
       style="fill:none;stroke:#000000;stroke-width:0.356832px;stroke-linecap:butt;stroke-linejoin:miter;stroke-opacity:1"
       d="m 129.55067,243.27854 c -0.69018,0.66579 -1.30893,1.40559 -1.84221,2.20261 -0.93674,1.40002 -1.6011,2.96008 -2.30987,4.48821 -0.42417,0.91453 -0.86939,1.82654 -1.46452,2.64024 -0.23631,0.3231 -0.49548,0.62948 -0.77492,0.91609"
       id="path3217"
       inkscape:path-effect="#path-effect3219;#path-effect3221"
       inkscape:original-d="m 129.55067,243.27854 c -2.84148,2.28927 -4.24311,8.26296 -6.39152,10.24715" />
    <path
       style="fill:none;stroke:#000000;stroke-width:0.356832px;stroke-linecap:butt;stroke-linejoin:miter;stroke-opacity:1"
       d="m 133.32848,250.21252 c -0.5653,1.01808 -1.01839,2.09842 -1.34844,3.21516 -0.21835,0.7388 -0.38398,1.50495 -0.34128,2.27416 0.0319,0.57543 0.18568,1.15267 0.50602,1.63176 0.34419,0.51475 0.86435,0.89291 1.42509,1.15559 0.22718,0.10642 0.46243,0.19561 0.70306,0.26655"
       id="path3223"
       inkscape:path-effect="#path-effect3225;#path-effect3227"
       inkscape:original-d="m 133.32848,250.21252 c -1.67834,3.35645 -3.14556,7.28418 0.94445,8.54322" />
    <path
       style="fill:none;stroke:#000000;stroke-width:0.356832px;stroke-linecap:butt;stroke-linejoin:miter;stroke-opacity:1"
       d="m 135.78844,253.17071 c 0.13779,0.18447 0.24732,0.39001 0.32361,0.60726 0.12951,0.3688 0.16175,0.76372 0.18642,1.15382 0.0369,0.58405 0.0593,1.1695 0.12673,1.75083 0.0299,0.25807 0.0696,0.51833 0.17043,0.75775 0.0294,0.0698 0.0641,0.1379 0.10966,0.19849 0.0455,0.0606 0.10226,0.11369 0.16946,0.14871 0.0707,0.0368 0.15216,0.0528 0.23153,0.0452"
       id="path3229"
       inkscape:path-effect="#path-effect3231;#path-effect3233"
       inkscape:original-d="m 135.78844,253.17071 c 0.9466,0.94843 0.13718,4.73275 1.31784,4.6621" />
    <path
       style="fill:none;stroke:#000000;stroke-width:0.356832px;stroke-linecap:butt;stroke-linejoin:miter;stroke-opacity:1"
       d="m 139.39053,253.52569 c -0.52925,0.12977 -1.03701,0.34679 -1.49656,0.63963 -0.52213,0.33272 -0.97854,0.76003 -1.39328,1.21972 -0.14724,0.16319 -0.29435,0.33982 -0.34377,0.55399 -0.0322,0.13969 -0.0191,0.29075 0.044,0.41948 0.0432,0.0881 0.10842,0.16424 0.18267,0.22846 0.0743,0.0642 0.15757,0.11709 0.24259,0.16617 0.30294,0.17488 0.62999,0.3038 0.95912,0.42223 0.42127,0.15159 0.85115,0.28838 1.2422,0.50639 0.14279,0.0796 0.27971,0.16972 0.4093,0.26937"
       id="path3235"
       inkscape:path-effect="#path-effect3237;#path-effect3239"
       inkscape:original-d="m 139.39053,253.52569 c -1.10103,0.2108 -2.0268,0.94707 -2.85531,1.82224 -1.50989,1.59495 1.65974,1.70515 2.70156,2.6032" />
    <path
       style="fill:none;stroke:#000000;stroke-width:0.356832px;stroke-linecap:butt;stroke-linejoin:miter;stroke-opacity:1"
       d="m 140.24714,250.21252 c 0.47882,0.45444 0.90033,0.96922 1.25139,1.52828 0.59629,0.94959 0.98485,2.01916 1.23127,3.11303 0.21855,0.97016 0.32798,1.97622 0.18948,2.961 -0.10153,0.72192 -0.34499,1.4402 -0.81059,2.00118 -0.24169,0.29121 -0.53994,0.53531 -0.87318,0.71466"
       id="path3241"
       inkscape:path-effect="#path-effect3243;#path-effect3245"
       inkscape:original-d="m 140.24714,250.21252 c 2.29986,1.85616 4.28712,8.54099 0.98837,10.31815" />
    <path
       style="fill:none;stroke:#000000;stroke-width:0.356832px;stroke-linecap:butt;stroke-linejoin:miter;stroke-opacity:1"
       d="m 133.57648,230.18505 c 2.99726,-2.0766 6.42856,-3.52362 10.00772,-4.22037 4.40943,-0.85837 8.98658,-0.57778 13.38159,0.35162 3.16808,0.66994 6.26181,1.67282 9.25189,2.91581 1.0158,0.42227 2.02005,0.87231 3.01127,1.34943"
       id="path3259"
       inkscape:path-effect="#path-effect3261;#path-effect3263"
       inkscape:original-d="m 133.57648,230.18505 c 9.12363,-6.91409 22.75526,-5.22688 32.44294,-1.03524 1.04582,0.4525 2.28762,0.67211 3.20953,1.43173" />
    <path
       style="fill:none;stroke:#000000;stroke-width:0.264583px;stroke-linecap:butt;stroke-linejoin:miter;stroke-opacity:1"
       d="m 74.975494,254.83546 c -0.289396,0.0273 -0.569988,0.14187 -0.795806,0.32491 -0.355458,0.28812 -0.557803,0.72171 -0.717704,1.15042 -0.304864,0.81737 -0.498637,1.67385 -0.611343,2.53891 -0.139996,1.07452 -0.155471,2.16726 -0.01405,3.2416 0.08022,0.6094 0.213255,1.21948 0.488269,1.76918 0.07952,0.15894 0.171233,0.31302 0.288135,0.44689 0.116902,0.13387 0.260215,0.24733 0.4252,0.31341 0.283272,0.11345 0.607525,0.0785 0.895326,-0.023 0.325325,-0.11464 0.621102,-0.31206 0.851762,-0.56853"
       id="path3478"
       inkscape:path-effect="#path-effect3480;#path-effect3482"
       inkscape:original-d="m 74.975494,254.83546 c -2.859646,-0.18135 -3.35771,12.94435 0.809787,9.19383" />
    <path
       style="fill:none;stroke:#000000;stroke-width:0.264583px;stroke-linecap:butt;stroke-linejoin:miter;stroke-opacity:1"
       d="m 76.160224,259.26635 c 0.04938,-0.3675 0.173124,-0.72484 0.361586,-1.04418 0.288637,-0.48907 0.721594,-0.87975 1.193755,-1.1953 0.331638,-0.22163 0.691211,-0.41207 1.081249,-0.49559 0.1126,-0.0241 0.227987,-0.0392 0.342888,-0.0316 0.114901,0.008 0.229723,0.0388 0.326294,0.10149 0.08513,0.0553 0.153956,0.13377 0.204481,0.22181 0.05052,0.088 0.08325,0.18552 0.103808,0.28493 0.06938,0.33545 0.0015,0.68365 -0.09023,1.01369 -0.06407,0.23059 -0.140033,0.45851 -0.241663,0.67519 -0.205676,0.4385 -0.511279,0.82098 -0.807782,1.20396 -0.374351,0.48354 -0.739215,0.97583 -1.055562,1.49916 -0.149388,0.24713 -0.291021,0.51143 -0.310983,0.79951 -0.01223,0.17648 0.02577,0.36181 0.135154,0.50084 0.07295,0.0927 0.173976,0.16061 0.282164,0.20769 0.108188,0.0471 0.223867,0.0744 0.339749,0.0966 0.295264,0.0566 0.597189,0.081 0.897339,0.064 0.585513,-0.0331 1.156689,-0.22476 1.664937,-0.51735 0.335777,-0.1933 0.64616,-0.43065 0.920684,-0.70405"
       id="path3496"
       inkscape:path-effect="#path-effect3498;#path-effect3500"
       inkscape:original-d="m 76.160224,259.26635 c 0.0052,-1.97454 4.664882,-4.65847 3.424505,-0.80215 -0.507209,1.57692 -4.373414,4.64779 -0.867849,4.70734 1.183134,0.0201 2.135984,-0.59996 2.791208,-1.22433" />
    <path
       style="fill:none;stroke:#000000;stroke-width:0.264583px;stroke-linecap:butt;stroke-linejoin:miter;stroke-opacity:1"
       d="m 82.094471,255.57224 c 0.803504,0.0908 1.574566,0.44849 2.162806,1.00332 0.51861,0.48915 0.892983,1.12597 1.086248,1.81218 0.252335,0.89594 0.197632,1.85515 -0.0027,2.76414 -0.252376,1.14533 -0.734421,2.24095 -1.419517,3.19285 -0.267147,0.37118 -0.56468,0.72049 -0.888645,1.04328"
       id="path3502"
       inkscape:path-effect="#path-effect3504;#path-effect3506"
       inkscape:original-d="m 82.094471,255.57224 c 5.033322,0.97215 3.745823,7.09463 0.938226,9.81577" />
  </g>
</svg>
