<?xml version="1.0" encoding="UTF-8" standalone="no"?>
<!-- Created with Inkscape (http://www.inkscape.org/) -->

<svg
   width="240mm"
   height="120mm"
   viewBox="0 0 240 120"
   version="1.1"
   id="svg8"
   inkscape:version="1.1.1 (3bf5ae0d25, 2021-09-20, custom)"
   sodipodi:docname="zhdanov.svg"
   xmlns:inkscape="http://www.inkscape.org/namespaces/inkscape"
   xmlns:sodipodi="http://sodipodi.sourceforge.net/DTD/sodipodi-0.dtd"
   xmlns="http://www.w3.org/2000/svg"
   xmlns:svg="http://www.w3.org/2000/svg"
   xmlns:rdf="http://www.w3.org/1999/02/22-rdf-syntax-ns#"
   xmlns:cc="http://creativecommons.org/ns#"
   xmlns:dc="http://purl.org/dc/elements/1.1/">
  <defs
     id="defs2" />
  <sodipodi:namedview
     id="base"
     pagecolor="#ffffff"
     bordercolor="#666666"
     borderopacity="1.0"
     inkscape:pageopacity="0.0"
     inkscape:pageshadow="2"
     inkscape:zoom="0.99437388"
     inkscape:cx="284.09837"
     inkscape:cy="181.52126"
     inkscape:document-units="mm"
     inkscape:current-layer="layer1"
     showgrid="false"
     showborder="true"
     width="200mm"
     showguides="true"
     inkscape:guide-bbox="true"
     inkscape:window-width="1920"
     inkscape:window-height="1020"
     inkscape:window-x="0"
     inkscape:window-y="60"
     inkscape:window-maximized="1"
     inkscape:pagecheckerboard="0">
    <inkscape:grid
       type="xygrid"
       id="grid815"
       units="mm"
       spacingx="10"
       spacingy="10"
       empspacing="4"
       dotted="false" />
  </sodipodi:namedview>
  <metadata
     id="metadata5">
    <rdf:RDF>
      <cc:Work
         rdf:about="">
        <dc:format>image/svg+xml</dc:format>
        <dc:type
           rdf:resource="http://purl.org/dc/dcmitype/StillImage" />
        <dc:title />
      </cc:Work>
    </rdf:RDF>
  </metadata>
  <g
     inkscape:label="Layer 1"
     inkscape:groupmode="layer"
     id="layer1"
     transform="translate(0,-177)">
    <path
       style="fill:none;stroke:#000000;stroke-width:0.264583px;stroke-linecap:butt;stroke-linejoin:miter;stroke-opacity:1"
       d="m 99.949803,222.38942 c -4.383603,5.0011 -5.581115,10.98083 -2.285346,16.87724 1.581285,2.82906 4.944053,4.24162 7.729823,5.89796 3.47776,2.06777 7.62838,3.23743 11.69555,2.66165 6.43836,-0.91147 11.23191,-11.39727 11.12425,-16.72602 -0.20578,-10.18545 -16.14161,-17.22019 -24.39939,-12.34034 -1.95956,1.15799 -2.2069,4.45619 -2.6214,6.32141"
       id="path41" />
    <path
       style="fill:none;stroke:#000000;stroke-width:0.264583px;stroke-linecap:butt;stroke-linejoin:miter;stroke-opacity:1"
       d="m 91.245334,215.76555 c 2.406306,2.08752 3.19106,6.08796 5.478098,8.22691 0.284953,0.2665 0.386606,-0.7407 0.73937,-0.90738 0.778319,-0.36774 1.658001,-0.46377 2.486998,-0.69566"
       id="path43" />
    <path
       style="fill:none;stroke:#000000;stroke-width:0.264583px;stroke-linecap:butt;stroke-linejoin:miter;stroke-opacity:1"
       d="m 100.18506,209.62563 c 2.74389,4.66324 2.05006,8.84079 -0.23526,12.76379"
       id="path45" />
    <path
       style="fill:none;stroke:#000000;stroke-width:0.264583px;stroke-linecap:butt;stroke-linejoin:miter;stroke-opacity:1"
       d="m 109.7633,207.6294 c 0.95423,2.65931 1.73686,5.88581 1.10908,8.71083"
       id="path47" />
    <path
       style="fill:none;stroke:#000000;stroke-width:0.264583px;stroke-linecap:butt;stroke-linejoin:miter;stroke-opacity:1"
       d="m 118.6358,207.9621 c -0.63674,3.11504 -1.14266,6.63294 -1.14266,9.64846"
       id="path49" />
    <path
       style="fill:none;stroke:#000000;stroke-width:0.264583px;stroke-linecap:butt;stroke-linejoin:miter;stroke-opacity:1"
       d="m 129.592,210.83547 c -0.91889,3.00603 -1.57531,7.07156 -4.06656,9.13428"
       id="path51" />
    <path
       style="fill:none;stroke:#000000;stroke-width:0.264583px;stroke-linecap:butt;stroke-linejoin:miter;stroke-opacity:1"
       d="m 101.19329,225.08132 c 3.63118,2.01102 -1.684632,5.21562 -0.73939,7.56148 1.78307,4.42514 10.22848,-1.13024 9.07415,-5.47451 -1.31522,-4.94974 -15.581862,1.54466 -8.30115,3.6295"
       id="path53" />
    <path
       style="fill:none;stroke:#000000;stroke-width:0.264583px;stroke-linecap:butt;stroke-linejoin:miter;stroke-opacity:1"
       d="m 101.2269,230.79779 c 0.98583,-0.0403 1.97514,-0.0289 2.95748,-0.12097 1.16991,-0.10968 0.75924,-2.55213 0.16806,-2.17772 -0.94385,0.59775 -1.53447,1.90176 0.0672,1.20985 1.16326,-0.50253 -0.98143,-0.39366 -0.70577,-0.21173 0.45884,0.30283 2.14153,0.33049 1.64679,0.0907 -0.48361,-0.23437 -1.59028,-0.36936 -1.88205,-0.36295 -0.65134,0.0143 2.24547,0.67384 1.68042,0.99812 -1.14889,0.65933 -2.62142,0.38311 -3.93213,0.57466"
       id="path55" />
    <path
       style="fill:none;stroke:#000000;stroke-width:0.264583px;stroke-linecap:butt;stroke-linejoin:miter;stroke-opacity:1"
       d="m 111.84699,229.13427 c -3.19793,6.78432 12.3845,7.28862 11.83002,0.66541 -0.38646,-4.61613 -7.83414,-5.0876 -10.72094,-3.23632 -1.92362,1.23359 -1.24944,3.96925 0.53771,4.53689"
       id="path57" />
    <path
       style="fill:none;stroke:#000000;stroke-width:0.264583px;stroke-linecap:butt;stroke-linejoin:miter;stroke-opacity:1"
       d="m 113.49378,231.10025 c 0.90742,-0.0302 1.81484,-0.0605 2.72226,-0.0907 0,0.1109 -0.0998,0.28434 0,0.33271 2.58706,1.25372 1.97394,-3.63359 0.0336,-1.60304 -0.33849,0.35422 -0.71262,0.78111 -0.73936,1.27033 -0.12803,2.3429 2.65228,-0.95817 2.05008,-0.72591 -0.17067,0.0658 -0.14023,0.31549 -0.20164,0.45369 -1.28831,0.12098 -2.57662,0.24196 -3.86493,0.36295"
       id="path59" />
    <path
       style="fill:none;stroke:#000000;stroke-width:0.264583px;stroke-linecap:butt;stroke-linejoin:miter;stroke-opacity:1"
       d="m 107.88125,242.04928 c 0.96566,-0.11379 -1.34318,-0.39717 -1.20987,-0.87711 0.21821,-0.78557 1.73315,-1.71912 2.31895,-2.14747 3.76853,-2.75566 4.93593,2.64726 6.7552,3.6295 0.66507,0.35908 -0.22811,-3.80923 -3.49523,-3.50853 -1.37731,0.12677 -3.39884,0.30647 -4.53707,1.33083 -1.35915,1.22318 0.33345,0.01 0.16802,1.57278 -0.002,0.0147 -1.57103,3.20645 -0.33608,1.24009"
       id="path61" />
    <path
       style="fill:none;stroke:#000000;stroke-width:0.264583px;stroke-linecap:butt;stroke-linejoin:miter;stroke-opacity:1"
       d="m 102.16793,244.07577 c 3.53326,2.47243 0.76888,7.83358 1.84843,11.03977"
       id="path63" />
    <path
       style="fill:none;stroke:#000000;stroke-width:0.264583px;stroke-linecap:butt;stroke-linejoin:miter;stroke-opacity:1"
       d="m 124.58442,244.28748 c -0.0842,3.86895 -0.61558,9.71701 -1.34434,12.34035"
       id="path65" />
    <path
       style="fill:none;stroke:#000000;stroke-width:0.264583px;stroke-linecap:butt;stroke-linejoin:miter;stroke-opacity:1"
       d="m 104.01636,255.11554 c -4.870856,0.17519 -9.705987,-0.23059 -14.585858,-0.0605 -3.623675,0.12631 -7.240133,0.41798 -10.85536,0.69565 -2.423718,0.18616 -4.845716,0.40649 -7.259312,0.69567 -0.398724,0.0478 -5.164563,0.78554 -6.015812,1.20983 -1.034545,0.51565 1.784604,1.5337 2.856661,1.96598 4.182044,1.68633 12.827852,2.35154 14.552242,7.501 0.04467,0.1334 -1.342753,1.21452 -1.478756,1.39132 -0.565174,0.7347 -1.52863,3.05845 -1.64678,3.96221"
       id="path67" />
    <path
       style="fill:none;stroke:#000000;stroke-width:0.264583px;stroke-linecap:butt;stroke-linejoin:miter;stroke-opacity:1"
       d="m 123.24008,256.62783 c 4.91233,0.32194 13.27559,-3.47523 17.00563,0.90738 3.66778,4.30948 0.33551,9.4588 -0.4369,14.00387 -0.17918,1.05436 -0.17166,5.11253 0.80659,2.17771"
       id="path69" />
  </g>
</svg>
